<svg width="8" height="10" viewBox="0 0 8 10" fill="none" xmlns="http://www.w3.org/2000/svg">
<path d="M4 4.75C3.66848 4.75 3.35054 4.6183 3.11612 4.38388C2.8817 4.14946 2.75 3.83152 2.75 3.5C2.75 3.16848 2.8817 2.85054 3.11612 2.61612C3.35054 2.3817 3.66848 2.25 4 2.25C4.33152 2.25 4.64946 2.3817 4.88388 2.61612C5.1183 2.85054 5.25 3.16848 5.25 3.5C5.25 3.66415 5.21767 3.8267 5.15485 3.97835C5.09203 4.13001 4.99996 4.26781 4.88388 4.38388C4.76781 4.49996 4.63001 4.59203 4.47835 4.65485C4.3267 4.71767 4.16415 4.75 4 4.75ZM4 0C3.07174 0 2.1815 0.368749 1.52513 1.02513C0.868749 1.6815 0.5 2.57174 0.5 3.5C0.5 6.125 4 10 4 10C4 10 7.5 6.125 7.5 3.5C7.5 2.57174 7.13125 1.6815 6.47487 1.02513C5.8185 0.368749 4.92826 0 4 0Z" fill="#033146"/>
</svg>
